<svg width="64" height="64" viewBox="0 0 64 64" fill="none" xmlns="http://www.w3.org/2000/svg">
  <rect x="7" y="9" width="50" height="46" rx="12" fill="#241B2E"/>
  <path d="M7 21H57" stroke="#5A5167" stroke-width="2"/>
  <circle cx="15" cy="15" r="2" fill="#F97316"/>
  <circle cx="21" cy="15" r="2" fill="#F59E0B"/>
  <circle cx="27" cy="15" r="2" fill="#FDBA74"/>
  <path d="M19 36C19 28.8203 24.8203 23 32 23C39.1797 23 45 28.8203 45 36C45 43.1797 39.1797 49 32 49C24.8203 49 19 43.1797 19 36Z" fill="#E95420"/>
  <path d="M32 23C35.3137 23 38 28.8203 38 36C38 43.1797 35.3137 49 32 49C28.6863 49 26 43.1797 26 36C26 28.8203 28.6863 23 32 23Z" fill="#FDE7D9"/>
  <path d="M19 36H45" stroke="#FDE7D9" stroke-width="2"/>
  <path d="M21.5 30.5H42.5" stroke="#FDE7D9" stroke-width="2"/>
  <path d="M21.5 41.5H42.5" stroke="#FDE7D9" stroke-width="2"/>
</svg>
