<svg width="64" height="64" viewBox="0 0 64 64" fill="none" xmlns="http://www.w3.org/2000/svg">
  <rect x="6" y="10" width="52" height="44" rx="12" fill="#F5F8FF"/>
  <path d="M6 22H58" stroke="#B7C5E8" stroke-width="2"/>
  <circle cx="14" cy="16" r="2" fill="#4EC2FF"/>
  <circle cx="20" cy="16" r="2" fill="#7CC8FF"/>
  <circle cx="26" cy="16" r="2" fill="#A7D9FF"/>
  <path d="M20 36C20 29.3726 25.3726 24 32 24C38.6274 24 44 29.3726 44 36C44 42.6274 38.6274 48 32 48C25.3726 48 20 42.6274 20 36Z" fill="#2A7DE1"/>
  <path d="M32 24C35.0684 24 37.5568 29.3726 37.5568 36C37.5568 42.6274 35.0684 48 32 48C28.9316 48 26.4432 42.6274 26.4432 36C26.4432 29.3726 28.9316 24 32 24Z" fill="#B7E3FF"/>
  <path d="M20 36H44" stroke="#E8F6FF" stroke-width="2"/>
  <path d="M22.5 30.5H41.5" stroke="#E8F6FF" stroke-width="2"/>
  <path d="M22.5 41.5H41.5" stroke="#E8F6FF" stroke-width="2"/>
</svg>
