<svg width="64" height="64" viewBox="0 0 64 64" fill="none" xmlns="http://www.w3.org/2000/svg">
  <path d="M10 18C10 14.6863 12.6863 12 16 12H26L31 17H48C51.3137 17 54 19.6863 54 23V45C54 48.3137 51.3137 51 48 51H16C12.6863 51 10 48.3137 10 45V18Z" fill="url(#paint0_linear_files_windows)"/>
  <path d="M10 23H54V45C54 48.3137 51.3137 51 48 51H16C12.6863 51 10 48.3137 10 45V23Z" fill="#F7C948"/>
  <path d="M18 31H36" stroke="#8A5A00" stroke-width="3" stroke-linecap="round"/>
  <path d="M18 38H46" stroke="#8A5A00" stroke-width="3" stroke-linecap="round"/>
  <defs>
    <linearGradient id="paint0_linear_files_windows" x1="10" y1="12" x2="54" y2="32" gradientUnits="userSpaceOnUse">
      <stop stop-color="#FFE68A"/>
      <stop offset="1" stop-color="#E5A700"/>
    </linearGradient>
  </defs>
</svg>
